<?xml version="1.0" encoding="UTF-8" standalone="no" ?>
<!DOCTYPE svg PUBLIC "-//W3C//DTD SVG 1.1//EN" "http://www.w3.org/Graphics/SVG/1.1/DTD/svg11.dtd">
<svg xmlns="http://www.w3.org/2000/svg" xmlns:xlink="http://www.w3.org/1999/xlink" version="1.1" width="441.94890624999994" height="158.3436" xml:space="preserve">
<desc>Created with Fabric.js 1.6.0-rc.1</desc>
<defs></defs>
<g style="stroke: none; stroke-width: 1; stroke-dasharray: none; stroke-linecap: butt; stroke-linejoin: miter; stroke-miterlimit: 10; fill: none; fill-rule: nonzero; opacity: 1;" transform="translate(10 10) scale(3.54 3.49)" >
  <path d="M 17.82 4 c 7.613 0 13.824 6.207 13.824 13.819 c 0 7.614 -6.211 13.825 -13.824 13.825 S 4 25.434 4 17.819 C 4 10.207 10.207 4 17.82 4 L 17.82 4 z M 17.82 4" style="stroke: none; stroke-width: 1; stroke-dasharray: none; stroke-linecap: butt; stroke-linejoin: miter; stroke-miterlimit: 10; fill: #FFA07A; fill-rule: nonzero; opacity: 1;" transform=" matrix(1 0 0 1 0 0) " stroke-linecap="round" />
  <path d="M 17.82 4 c 7.613 0 13.824 6.207 13.824 13.819 c 0 7.614 -6.211 13.825 -13.824 13.825 S 4 25.434 4 17.819 C 4 10.207 10.207 4 17.82 4 L 17.82 4 z M 17.82 4" style="stroke: #FF8C00; stroke-width: 8; stroke-dasharray: none; stroke-linecap: butt; stroke-linejoin: miter; stroke-miterlimit: 2.61; fill: none; fill-rule: nonzero; opacity: 1;" transform=" matrix(1 0 0 1 0 0) " stroke-linecap="round" />
  <path d="M 17.82 4 c 7.613 0 13.824 6.207 13.824 13.819 c 0 7.614 -6.211 13.825 -13.824 13.825 S 4 25.434 4 17.819 C 4 10.207 10.207 4 17.82 4" style="stroke: none; stroke-width: 1; stroke-dasharray: none; stroke-linecap: butt; stroke-linejoin: miter; stroke-miterlimit: 10; fill: #231F20; fill-rule: evenodd; opacity: 1;" transform=" matrix(1 0 0 1 0 0) " stroke-linecap="round" />
  <path d="M 17.82 5.715 c 1.945 0 3.781 0.461 5.41 1.277 c -1.824 0.313 -3.145 2.641 -3.063 5.239 c 0.09 2.789 1.688 5.203 1.789 9.367 v 7.601 c -1.293 0.474 -2.684 0.731 -4.137 0.731 c -0.554 0 -1.102 -0.039 -1.64 -0.114 V 16.633 c 1.554 -0.059 2.882 -1.047 2.867 -2.418 V 7.223 h -1.355 v 6.336 H 16.84 V 7.223 h -1.223 v 6.336 h -0.855 V 7.223 h -1.219 v 6.336 h -0.855 V 7.223 H 11.98 C 13.715 6.262 15.707 5.715 17.82 5.715 L 17.82 5.715 z M 23.648 7.211 c 3.738 2.066 6.281 6.051 6.281 10.608 c 0 4.563 -2.543 8.547 -6.281 10.61 V 7.211 L 23.648 7.211 z M 14.199 29.375 c -4.91 -1.548 -8.488 -6.145 -8.488 -11.556 c 0 -4.28 2.246 -8.057 5.621 -10.213 v 6.609 c 0.027 1.187 1.336 2.363 2.867 2.469 V 29.375" style="stroke: none; stroke-width: 1; stroke-dasharray: none; stroke-linecap: butt; stroke-linejoin: miter; stroke-miterlimit: 10; fill: #FFFFFF; fill-rule: evenodd; opacity: 1;" transform=" matrix(1 0 0 1 0 0) " stroke-linecap="round" />
</g>
  <g transform="translate(291.75 76.83) scale(1.13 1.11)">
   <text font-family="Northern Lights" font-size="40" font-weight="normal" style="stroke: none; stroke-width: 1; stroke-dasharray: none; stroke-linecap: butt; stroke-linejoin: miter; stroke-miterlimit: 10; fill: #ffffff; fill-rule: nonzero; opacity: 1;" ><tspan x="-124.57" y="8.98" style="stroke: none; stroke-width: 0; stroke-dasharray: none; stroke-linecap: butt; stroke-linejoin: miter; stroke-miterlimit: 4; fill: #ffffff; fill-rule: ; opacity: 1;">P</tspan><tspan x="-103.52" y="8.98" style="stroke: none; stroke-width: 0; stroke-dasharray: none; stroke-linecap: butt; stroke-linejoin: miter; stroke-miterlimit: 4; fill: #ffffff; fill-rule: ; opacity: 1;">o</tspan><tspan x="-81.31" y="8.98" style="stroke: none; stroke-width: 0; stroke-dasharray: none; stroke-linecap: butt; stroke-linejoin: miter; stroke-miterlimit: 4; fill: #ffffff; fill-rule: ; opacity: 1;">p</tspan><tspan x="-61.66" y="8.98" style="stroke: none; stroke-width: 0; stroke-dasharray: none; stroke-linecap: butt; stroke-linejoin: miter; stroke-miterlimit: 4; fill: #ffffff; fill-rule: ; opacity: 1;">p</tspan><tspan x="-42.01" y="8.98" style="stroke: none; stroke-width: 0; stroke-dasharray: none; stroke-linecap: butt; stroke-linejoin: miter; stroke-miterlimit: 4; fill: #ffffff; fill-rule: ; opacity: 1;">y</tspan><tspan x="-23.01" y="8.98" style="stroke: none; stroke-width: 0; stroke-dasharray: none; stroke-linecap: butt; stroke-linejoin: miter; stroke-miterlimit: 4; fill: #ffffff; fill-rule: ; opacity: 1;"> </tspan><tspan x="-13.09" y="8.98" style="stroke: none; stroke-width: 0; stroke-dasharray: none; stroke-linecap: butt; stroke-linejoin: miter; stroke-miterlimit: 4; fill: #ffffff; fill-rule: ; opacity: 1;">C</tspan><tspan x="10.49" y="8.98" style="stroke: none; stroke-width: 0; stroke-dasharray: none; stroke-linecap: butt; stroke-linejoin: miter; stroke-miterlimit: 4; fill: #ffffff; fill-rule: ; opacity: 1;">h</tspan><tspan x="27.48" y="8.98" style="stroke: none; stroke-width: 0; stroke-dasharray: none; stroke-linecap: butt; stroke-linejoin: miter; stroke-miterlimit: 4; fill: #ffffff; fill-rule: ; opacity: 1;">a</tspan><tspan x="49.9" y="8.98" style="stroke: none; stroke-width: 0; stroke-dasharray: none; stroke-linecap: butt; stroke-linejoin: miter; stroke-miterlimit: 4; fill: #ffffff; fill-rule: ; opacity: 1;">r</tspan><tspan x="65.72" y="8.98" style="stroke: none; stroke-width: 0; stroke-dasharray: none; stroke-linecap: butt; stroke-linejoin: miter; stroke-miterlimit: 4; fill: #ffffff; fill-rule: ; opacity: 1;">g</tspan><tspan x="85.16" y="8.98" style="stroke: none; stroke-width: 0; stroke-dasharray: none; stroke-linecap: butt; stroke-linejoin: miter; stroke-miterlimit: 4; fill: #ffffff; fill-rule: ; opacity: 1;">h</tspan><tspan x="102.15" y="8.98" style="stroke: none; stroke-width: 0; stroke-dasharray: none; stroke-linecap: butt; stroke-linejoin: miter; stroke-miterlimit: 4; fill: #ffffff; fill-rule: ; opacity: 1;">a</tspan></text>
 </g>
</svg>